<svg version="1.1" xmlns="http://www.w3.org/2000/svg" viewBox="0 0 1051.22515646087 508" width="1051.22515646087" height="508">
  <!-- svg-source:excalidraw -->
  
  <defs>
    <style>
      @font-face {
        font-family: "Virgil";
        src: url("https://excalidraw.com/Virgil.woff2");
      }
      @font-face {
        font-family: "Cascadia";
        src: url("https://excalidraw.com/Cascadia.woff2");
      }
    </style>
  </defs>
  <g stroke-linecap="round" transform="translate(265.22515646087 10) rotate(0 126.5 56.5)"><path d="M0 0 C0 0, 0 0, 0 0 M0 0 C0 0, 0 0, 0 0 M0.23 6.93 C1.15 4.94, 3.3 2.79, 4.41 -0.15 M-0.47 6.01 C1.42 5.07, 2.13 3.57, 5.16 -0.01 M0.75 12.13 C2.82 9.81, 3.95 4.85, 11.24 0.01 M0.7 11.54 C3.22 10.2, 4.13 6.93, 10.6 0.53 M0.39 17.65 C3.17 12.82, 8.6 8.09, 17.3 0.26 M-0.76 18.23 C6.64 11.16, 12.06 4.6, 14.83 0.13 M-0.87 23.79 C6.77 15.82, 10.88 11.01, 20.9 -1 M0.9 23.95 C7.69 14.28, 16.74 4.98, 21.16 -0.2 M-1.49 28.67 C7.31 25.12, 11.99 15.18, 26.95 1.59 M-0.61 30.29 C9.53 19.53, 17.99 9.66, 26.49 0.98 M0.16 36.71 C10.36 22.28, 22.27 8.92, 30.54 0.47 M-0.47 36.23 C11.59 24.04, 22.7 10.56, 31.42 0.27 M-0.12 43.98 C9.02 30.62, 19.79 22.1, 37.75 -1.66 M-0.09 42.32 C11.12 28.97, 22.49 16.96, 36.46 0.51 M-0.35 49.53 C13.82 34.05, 25.11 21.01, 42.85 1.14 M0.51 49.84 C13.19 33.57, 26.38 19.07, 41.88 0.77 M0.13 53.17 C12.64 38.33, 28.9 21.47, 49 1.18 M-0.25 55.55 C18.66 33.7, 35.24 13.4, 47.95 -0.69 M1.38 62.56 C14.2 44.76, 25.06 32.21, 53.42 -1.85 M0.86 60.67 C13.24 46.65, 28.38 30.06, 52.75 -0.46 M-0.65 67 C14.84 50.78, 31.81 29.02, 60.11 -1.79 M-1.09 67.54 C17.39 45.38, 34.29 25.23, 58.41 1.01 M1.89 72.76 C15.7 55.42, 30.79 38.55, 64.98 -0.97 M0.46 72.91 C17.03 52.59, 33.46 32.66, 62.95 -0.66 M-1.32 80.38 C19.68 56.53, 39.25 34.13, 68.59 0.89 M0.05 80.12 C16.68 60.85, 31 42.63, 68.49 -0.74 M-0.19 84.49 C17.6 62.61, 37.05 41.52, 73.31 -0.28 M0.38 84.8 C23.56 59.42, 46.85 32.7, 75.1 0.5 M-1.6 90.88 C27.78 60.36, 58.43 26.71, 80.03 -1.86 M-0.43 90.92 C24.2 62.69, 48.68 34.38, 79.03 0.81 M1.2 96.28 C20.58 73.21, 40.85 52.7, 85.32 -1.43 M-0.74 98.38 C30.08 64.1, 58.46 32.66, 84.52 -0.11 M-1.48 101.71 C28.92 67.99, 59.61 29.98, 90.13 -1.74 M-0.78 103.37 C25.95 74.22, 51.52 44.34, 90.07 0.41 M0.2 111.79 C36.59 66.53, 73.76 25.4, 96.99 -1.66 M-1.11 109.47 C21.62 84.65, 44.16 59.61, 96.23 -0.08 M1.47 115 C25.24 90.88, 43.91 65.54, 98.67 -1.06 M1.8 114.94 C33.02 77.92, 66.15 39.16, 99.88 -0.13 M7.61 114.81 C29.28 85.77, 52.43 60.5, 107.4 0.19 M5.87 113.65 C29.85 86.48, 54.48 58.47, 105.97 -0.45 M11.32 115.73 C48.74 71.86, 85.42 28.94, 111.53 1.31 M11.33 114.1 C52.13 69.39, 89.97 26.78, 111.9 -0.93 M15.82 114.35 C42.13 84.91, 67.3 54.83, 116.07 -1.57 M17.47 114.36 C56.09 73.08, 91.74 29.63, 116.52 0.06 M24.19 112.91 C52.8 77.74, 83.16 44.39, 122.68 -0.12 M22.5 114.5 C48.73 84.39, 74.42 55.53, 121.79 0.9 M27.99 114.34 C50.02 87.26, 77.36 58.44, 127.59 -0.47 M27.84 113.61 C65.9 69.42, 105.9 24.6, 127.31 0.98 M32.48 115.38 C69.58 70.75, 106.03 28.72, 132.18 0.58 M33.88 113.74 C61.43 82.88, 88.02 52.21, 132.42 0.33 M37.3 113.58 C64.23 79.18, 96.01 46.68, 137.65 0.63 M38.29 114.9 C76.03 69.85, 116.43 23.61, 137.53 -0.33 M45.67 112.39 C63.72 91.25, 85.05 65.31, 144.2 -1.25 M43.75 112.99 C70.09 86.06, 93.97 55.44, 142.86 -0.66 M49.04 112.26 C70.51 88.22, 93.45 65.12, 149.73 0.52 M48.31 114.81 C74.38 83.76, 102.22 54.51, 147.72 -0.71 M55.69 116.38 C81.23 82.3, 111.08 49.6, 152.99 1.11 M54.44 114.73 C89.82 74.11, 123.61 34.69, 153.36 0 M58.6 114.02 C97.97 68.56, 134.86 27.38, 160.35 -1.63 M60.62 113.94 C82.07 90.86, 103.12 65.23, 158.13 0.53 M65.52 113.88 C104.87 69.5, 140.92 24.52, 164.9 -0.17 M63.92 114.7 C101.76 72.13, 136.95 30.94, 164.4 -0.6 M69.44 115.86 C94.55 86.08, 119.06 56.29, 169.18 -0.2 M70.11 113.96 C93.51 88.07, 116.38 61.73, 169.71 0.64 M75.28 116.13 C111 73.69, 144.26 36.61, 176.36 -1.56 M74.94 115.46 C104.74 82.15, 133.06 50.31, 175.65 0.68 M79.12 114.21 C117.26 70.92, 156.95 28, 180.95 -1.2 M80.91 114.57 C101.26 90.19, 123.45 65.14, 179.09 0.4 M86.84 114.01 C113.83 81.1, 145.49 48.2, 183.92 -2.1 M86.58 114.36 C117.23 79.43, 147.42 43.62, 184.99 0.03 M93.32 114.91 C120.44 77.8, 151.78 39.58, 191.48 -0.21 M91.33 114.51 C121.32 79.73, 151.05 45.51, 191.65 -0.84 M97.14 112.81 C133.13 71.32, 169.54 31.64, 198.2 -1.41 M96.64 115.31 C117.32 89.3, 140.22 63.35, 195.51 -0.32 M103.77 115.19 C127.85 85.2, 151.62 58.45, 201.71 -0.42 M102.88 114.6 C130.4 81.79, 158.79 49.63, 200.43 -0.2 M108.24 114.21 C132.55 83.67, 158.43 57.05, 205.92 -1.74 M106.6 113.76 C133.41 83.97, 158.76 53.19, 206.48 -1.07 M114.34 113.71 C147.09 74.2, 182.42 33.02, 211.66 1.4 M113.29 114.66 C153.55 68.4, 192.26 23.6, 211.19 -0.26 M117.29 114.32 C142.8 88.01, 164.05 60.92, 215.9 -1.9 M118.67 113.69 C137.71 91.67, 157.29 66.47, 218.39 -0.91 M122.95 112.5 C148.32 82.48, 177.23 51.69, 222.43 0.88 M123.47 114.61 C160.71 73.02, 196.35 31.89, 223.41 -0.02 M126.51 113.63 C163.02 76.99, 195.87 37.63, 229.04 0.69 M128.74 114.64 C157.64 79.54, 186.09 45.71, 227.93 0.54 M135.65 115.03 C155.8 89.9, 176.69 63.01, 234.23 0.04 M134.57 113.37 C163.37 80, 193.09 44.24, 233.23 0.02 M137.25 115.07 C178.79 69.89, 216.59 24.09, 239.71 0.77 M139.42 114.72 C172.52 77.01, 204.24 39.59, 238.34 0.47 M144.57 112.17 C170.86 83.3, 198.69 52.31, 244.37 1.34 M144.9 113.93 C170.87 83.53, 196.44 53.62, 244.54 0.96 M147.93 113.94 C182.51 71.95, 217.58 31.45, 248.3 0.22 M149.02 113.54 C184.68 74.55, 219.31 36.39, 249.02 0.83 M153.91 112.17 C182.62 83.1, 210.92 47.9, 252.58 2.38 M155 114.32 C183.49 84.46, 209.05 53.79, 253.26 1.15 M160.06 115.97 C199.07 72.58, 234.39 28.45, 253.44 5.41 M160.54 113.29 C194.31 76.01, 227.01 36.6, 252.72 6.69 M166.01 114.73 C198.68 73.26, 231.9 37.79, 255.17 10.97 M166.61 114.63 C192.32 86.29, 216.04 57.32, 254.46 12.33 M172.26 115.29 C188.97 95.49, 205.73 72.86, 253.73 19.01 M170.71 113.71 C191.29 93.08, 208.82 71.91, 254.25 19.11 M174.61 113.67 C194.46 94.14, 216.9 70.28, 254.55 23.46 M175.01 114.74 C194.35 94.4, 212.91 73.15, 254.97 24.9 M182.23 112.43 C205.04 84.95, 228.22 58.55, 253.15 31.37 M180.93 115.05 C207.64 84, 235.25 54.53, 252.9 31.4 M185.54 115.97 C203.98 94.18, 223.22 74.14, 251.75 36.67 M186.66 114.3 C212.75 84.53, 240.15 54.84, 252.82 36.86 M192.78 112.34 C214.02 88.56, 239.78 62.88, 255.17 43.5 M192.32 113.16 C205.9 98.65, 219.57 81.66, 253.58 43.24 M198.72 116.29 C214.45 92.69, 235.81 68.33, 252.84 51.56 M198.24 114.3 C208.91 101.88, 221.43 88.66, 252.7 50.51 M201.8 114.36 C221.43 91.42, 242.99 69.43, 253.34 55.84 M202.71 114.39 C216.83 98.73, 229.97 82.92, 254.42 54.32 M208.86 115.93 C221.35 97.19, 237.07 83.45, 255.04 59.77 M208.31 115.01 C219.14 102.42, 229.69 88.33, 253.05 61.97 M212.28 114.25 C229.03 95.67, 243.74 76.55, 252.68 66.96 M213.63 114.66 C227.01 100.77, 237.81 85.49, 253.06 68.15 M218.73 113.58 C231.36 102.55, 243.11 87.66, 255.3 74.57 M217.61 113.73 C228.76 104.12, 236.76 93.5, 253.65 73.13 M222.3 114.17 C232.98 101.15, 245.71 92.55, 254.25 80.6 M223.29 114.43 C231.14 105.36, 238.54 97.94, 254.33 80.02 M229.22 115.38 C233.25 108.96, 241.57 99.36, 255.68 85.67 M230.11 113.82 C237.03 104.93, 247.24 94.27, 254 85.44 M235.03 112.69 C239.72 106.83, 249.5 98.01, 253.24 92.16 M235.65 113.72 C241.17 106.92, 247.5 99.74, 253.3 92.53 M241.29 112.83 C244.52 111.53, 245.53 105.39, 252.65 97.92 M239.96 113.71 C244.03 108.11, 250.01 103.63, 253.65 97.65 M244.99 114.5 C247.72 111.01, 249.03 108.99, 255.02 103.85 M245.35 113.39 C247.28 111.67, 248.61 110.31, 254.57 103.78 M250.32 113.97 C251.41 113.58, 252.23 112.19, 253.71 110.5 M250.44 114.21 C251.56 113.04, 252.26 111.91, 253.72 110.36" stroke="#fa5252" stroke-width="0.5" fill="none"></path><path d="M0.95 0.01 C80.78 1.88, 160.22 0.14, 251.54 -1 M0.49 0.44 C54.57 -1.17, 109.13 -1.22, 252.78 0.6 M252.99 0.1 C252.8 33.32, 254.11 66.86, 254.68 113.68 M253.62 -0.72 C253 29.11, 252.04 59.66, 252.54 113.18 M253.03 112.1 C157.83 114.98, 63.94 113.85, -0.95 113.49 M253.53 112.34 C186.73 114.73, 118.72 114, -0.31 112.56 M1.17 114.75 C-0.75 73.55, -1.16 36.26, -1.75 -0.22 M-0.82 113.4 C-0.56 82.49, -0.63 52.81, 0.09 -0.98" stroke="#000000" stroke-width="1" fill="none"></path></g><g transform="translate(356.72515646087 53.5) rotate(0 35 13)"><text x="35" y="21" font-family="Chinese, Segoe UI Emoji" font-size="20px" fill="#000000" text-anchor="middle" style="white-space: pre;" direction="ltr">Master</text></g><g stroke-linecap="round"><g transform="translate(11.225156460869982 236) rotate(0 487.8093218260538 2.313865442173551)"><path d="M0.15 -0.13 C162.89 0.94, 814.08 5.14, 976.84 5.88 M-1.23 -1.25 C161.3 -0.46, 812.96 3.14, 975.81 4.21" stroke="#000000" stroke-width="1" fill="none"></path></g></g><g transform="translate(643.22515646087 165.09999999999997) rotate(0 66.5 24.700000000000017)"><text x="0" y="39.40000000000003" font-family="Chinese, Segoe UI Emoji" font-size="38.00000000000002px" fill="#000000" text-anchor="start" style="white-space: pre;" direction="ltr">Modbus</text></g><g stroke-linecap="round"><g transform="translate(385.22515646087 125) rotate(0 -0.4369987580925567 56.21887344995514)"><path d="M1.02 -0.35 C0.88 18.76, -1.75 95.18, -1.89 114.01 M0.09 -1.58 C0.43 17.27, 0.36 93.2, 0.35 112.42" stroke="#000000" stroke-width="1" fill="none"></path></g></g><g stroke-linecap="round" transform="translate(45.22515646086998 410) rotate(0 62.5 43)"><path d="M0 0 C0 0, 0 0, 0 0 M0 0 C0 0, 0 0, 0 0 M-0.99 6.22 C0.12 5.91, 1.17 3.87, 4.92 0.56 M-0.13 6.7 C1.39 4.4, 3.57 2.5, 4.98 0.04 M-0.95 10.86 C3.97 8.01, 6.17 2.64, 10.72 -0.15 M0.31 11.42 C4.23 6.85, 8.34 2.91, 11.27 0.63 M-1.24 18.94 C4.39 14.65, 6.9 12.67, 15.57 2.14 M-0.31 17.79 C6.45 11.68, 12.89 4.57, 15.37 -0.36 M0.8 22.98 C7.41 17.33, 9.69 10, 20.98 -0.06 M0.16 24.82 C6.33 17.52, 12.7 10.18, 20.77 0.59 M1.3 32.2 C4.22 22.72, 10.22 16.72, 27.67 -1.67 M-0.94 30.04 C7.77 20.95, 16.68 10.22, 25.51 0.53 M-2.2 38.34 C4.89 27.93, 14.11 21.1, 33.68 1.35 M-0.58 37.02 C8.72 26.3, 17.16 17.1, 31.6 -0.73 M0.04 41.59 C6.46 33.63, 16.16 23.94, 36.21 -0.06 M1.06 42 C12.45 29.35, 24.11 15.15, 35.9 1.08 M-0.93 50.79 C15.4 29.92, 28.93 13.67, 41.9 -2.14 M0.51 49.66 C16.56 29.83, 31.25 13.34, 42.32 -0.8 M0.91 54.08 C12.1 39.76, 24.64 27.41, 48.69 -0.37 M0.65 54.44 C14.22 39.79, 26.33 23.33, 46.57 -0.61 M0.34 62.86 C21.93 37.7, 39.46 16.88, 52.09 0.42 M-0.63 60.02 C19.82 38.43, 41.26 14.33, 52.36 0.43 M-1.42 66.46 C15.45 48.34, 30.86 29.18, 59.02 2.1 M-0.82 66.62 C12.78 53.25, 23.72 39.39, 58.11 -0.28 M0.39 72.37 C20.95 47.78, 39.1 26.28, 62.12 -0.96 M-0.84 72.8 C20.87 48.31, 43.7 24.17, 63.21 -0.27 M1.12 80.38 C22.52 51.75, 47.46 26.33, 69.53 -1.83 M0.01 80.23 C16 61.84, 32.1 42.24, 68.66 -0.42 M-1.59 83.28 C15.53 63.82, 36.41 43.77, 75.25 0.82 M0.57 85.95 C27.56 55.68, 53.12 25.8, 75.4 -0.45 M2.62 89.8 C23.29 64.64, 40.28 43.69, 80.93 -1.25 M2.2 87.91 C18.23 70.3, 34.73 51.39, 78.9 0.64 M7.88 86.56 C26.97 67.34, 45.47 44.57, 86.16 -0.01 M8.72 88.52 C39.24 52.15, 69.59 18.44, 85.51 -0.93 M11.9 88.02 C31.11 65.09, 52.83 42.44, 90.35 0.85 M14.14 89.21 C38.21 57.12, 63.48 28.27, 89.06 -0.19 M17.55 86.38 C43.17 59.89, 63.52 36.95, 94.94 -0.17 M19.15 87.89 C42.82 60.3, 67.08 33.57, 95.17 -0.86 M22.03 88.52 C53.73 55.64, 84.94 20.32, 101.33 1.56 M24.16 88.51 C45.68 65.02, 66.81 40.57, 99.91 0.17 M28.54 88.73 C46.32 67.55, 64.13 49.02, 105.08 -1.26 M27.91 89.36 C46.64 67.98, 65.35 45.91, 106.05 -0.65 M33.38 86.82 C56.71 61.97, 76.09 40.75, 109.81 0.08 M34.47 87.82 C55.33 65.63, 76.53 42.14, 111.78 0.03 M39 88.42 C62.53 61.96, 85.64 37.07, 116.8 0.97 M39.21 88.17 C62.95 61.83, 88.64 32.45, 116.22 -0.27 M43.72 87.54 C71.73 58.4, 96.79 26.15, 122.14 -0.32 M44.38 88.84 C63.38 67.82, 81.17 48.69, 121.52 -0.11 M51.48 90.61 C69.18 65.34, 91.38 43.93, 127.08 0.33 M49.82 88 C70.29 66.21, 89.89 42.88, 127.11 1.49 M54.22 86.37 C76.42 66.67, 95.5 43.26, 126.51 9.3 M55.2 88 C72.75 68.44, 88.05 50.11, 125.01 7 M61.62 89.82 C78.2 65.66, 98.19 46.95, 127.78 11.84 M60.72 88.99 C84.98 60.17, 107.97 32.89, 126.67 13.64 M67.47 88.12 C84.18 70.26, 100.39 49.82, 126.71 19.38 M67.32 87.41 C79.53 73.25, 94.31 57.71, 125.82 20.25 M71.45 88.62 C84.77 74.62, 97.4 58.35, 125.84 26.93 M71.43 89.51 C84.55 72.99, 97.35 58.3, 126.62 25.25 M77.46 88.69 C89.45 75.32, 102.71 60.03, 128.24 32.97 M77.16 87.89 C94.73 69.61, 110.61 48.25, 126.4 32.23 M83.42 87.73 C97.89 72.08, 113.69 51.94, 127.14 38.22 M83.03 89.08 C97.92 71.19, 111.44 53.31, 125.21 37.16 M87.58 89.06 C96.02 77.19, 103.64 67.15, 127.07 41.73 M88.19 87.98 C101.49 71.48, 115.51 54.19, 125.81 44.24 M94.36 87.91 C99.86 77.39, 109.72 69.44, 126.92 51.16 M93.13 89.47 C99.74 80.15, 107.93 71.57, 126.7 50.65 M96.64 89.31 C106.43 78.15, 114.22 68.34, 127.59 55.4 M97.92 88.9 C107.09 80.31, 113.77 71.34, 126.65 54.81 M101.55 88.06 C108.39 79.17, 118.49 73.56, 127.84 62.56 M102.9 87.63 C110.52 80.52, 117.63 73.25, 126.44 62.97 M108.83 86.62 C112.35 81.92, 117.3 76.74, 127.92 68.59 M108.93 87.58 C113.33 82.55, 117.36 76.92, 125.41 69.42 M112.69 87.2 C116.85 82.41, 121.66 77.6, 124.74 75.48 M114.05 88.71 C117.35 85.44, 120 80.73, 126.47 73.35 M119.67 88.65 C120.57 85.71, 122.57 84.69, 125.35 80.12 M119.69 87.85 C122.1 85.41, 124.25 82.75, 126.12 80.48" stroke="#7950f2" stroke-width="0.5" fill="none"></path><path d="M-0.77 -0.63 C47.94 0.25, 93.58 -0.92, 125.65 -0.84 M-0.45 -0.17 C33.81 0.84, 65.74 1.53, 125.4 -0.28 M125.74 -1.51 C122.98 30.14, 125.1 60.56, 126.23 84.91 M124.11 -0.44 C124.89 21.48, 123.95 42.02, 124.48 85.81 M124.96 86.19 C89.06 85.29, 57.01 84.84, -0.88 87.52 M125.74 86.57 C88.23 87.35, 51.47 86.58, -0.48 86.96 M-1.97 86.11 C0.14 56.09, -1.27 21.69, 0.35 -0.35 M0.69 85.38 C0.09 56.18, 1.24 26.56, 0.04 -0.82" stroke="#000000" stroke-width="1" fill="none"></path></g><g stroke-linecap="round" transform="translate(333.22515646087 406) rotate(0 58.5 46)"><path d="M0 0 C0 0, 0 0, 0 0 M0 0 C0 0, 0 0, 0 0 M-0.06 6.58 C1.33 5.27, 1.88 3.21, 4.66 0.51 M0.09 6.32 C1.3 3.99, 3.39 2.14, 5.02 0.39 M-0.47 13.31 C2.23 10.14, 4.98 6.55, 9.54 0.79 M-0.55 11.75 C2.62 8.28, 7.18 3.63, 10.89 0.26 M-1.86 19.81 C4.34 11.99, 9.94 5.91, 13.9 -0.04 M-1.04 17.91 C4.87 13.1, 10.08 8.54, 15.21 0.11 M1.39 22.27 C8.49 15.18, 13.39 7.13, 19.89 1.18 M-0.69 24.59 C7.02 16.57, 14.14 7.7, 21.51 -0.18 M0.68 31.48 C7.42 21.98, 12.85 14.92, 27.12 1.33 M0.57 29.48 C8.9 19.45, 17.36 9.06, 26.93 -0.65 M0.78 35.18 C9.45 25.52, 20.99 10.13, 30.84 -0.79 M-0.28 36.16 C9.08 26.37, 18.33 15.82, 31.74 0.37 M1.65 43.81 C9.37 29.72, 19.23 16.59, 38.29 -1.14 M1.04 42.24 C11.13 29.87, 22.02 16.61, 37.63 -0.7 M-1.57 49.74 C14.52 33.14, 24.16 21.14, 41.9 -1.43 M-0.34 48.59 C14.78 31, 30.56 15.6, 41.54 -0.7 M1.95 53.14 C13.17 38.39, 25.82 24.88, 47.98 1.99 M0.7 54.05 C17.27 34.75, 35.08 13.25, 47.92 1.19 M-0.6 61.01 C15.81 47.2, 26.66 29.64, 53.92 -0.86 M-0.46 60.4 C13.76 44.98, 27.57 28.01, 52.51 -0.54 M-1.09 68.99 C13.41 49.58, 29.21 31.5, 56.85 1.54 M-1.07 67.08 C23.32 42.24, 44.92 17.64, 58.62 -0.76 M1.47 72.69 C15.61 54.62, 31.67 37.76, 62.86 -0.79 M0.6 72.41 C19.91 49.05, 42.03 24.57, 62.93 0.25 M-1.07 81 C19.68 58.01, 39.99 33.93, 67.65 -0.24 M-0.24 79.8 C19.62 56.9, 40.24 34.43, 69.74 -0.23 M0.51 83.9 C24.17 58.29, 49.5 27.38, 73.77 1.45 M-0.71 85.47 C27.5 55, 55.11 23.34, 74.79 0.62 M-0.48 89.5 C25.77 58.17, 54.13 24.84, 79.24 0.28 M0.97 90.45 C27.91 61.06, 54.97 29.23, 79.51 0.12 M3.12 92.13 C20.4 74.43, 35.26 54.58, 86.79 -1.02 M2.91 94.48 C21.83 73.95, 38.88 54.91, 84.8 0.07 M9.82 95.41 C28.29 73.46, 43.92 51.25, 88.54 -1.84 M7.57 94.05 C35.76 62.78, 63.3 29.85, 89.34 -0.31 M12.62 95.29 C47.63 54.45, 79.11 18.09, 95.17 1.29 M14.55 93.36 C46.5 58.38, 78 20.43, 95.35 -0.38 M18.96 95.13 C38.1 75.37, 55.42 53.71, 100.61 1.85 M19.14 94.24 C45.75 64.86, 71.61 34.45, 100.87 0.9 M22.63 96.5 C42.41 74.86, 58.77 53.67, 107.23 0.31 M23.77 94.91 C44.18 70.81, 65.43 47.75, 105.55 -1.12 M29.76 92.48 C52.13 69.82, 70.53 46.2, 110.55 -0.77 M28.61 94.17 C52.47 67.25, 75.9 39.29, 110.93 0.25 M34.73 95.01 C52.43 73.96, 73.17 53.6, 115.75 1.09 M35.13 94.67 C53.47 74.46, 70.6 55.74, 115.56 -0.27 M40.77 92.65 C70.3 58.05, 99.3 23.58, 119.64 1.82 M39.21 93.56 C62.9 67.51, 87.06 39.3, 120.58 1.54 M44.6 93.71 C71.62 60.71, 102.83 29.48, 119.33 9.15 M45.45 95.51 C70.21 65.64, 95.78 35.92, 118.96 8.64 M49.63 95.23 C70.17 74.24, 86.9 52.93, 118.62 13.85 M50.9 94.64 C75.38 65.57, 99.05 38.93, 119.5 13.89 M54.68 94.15 C73.1 72.4, 94.65 49.41, 118.87 19.86 M55.4 95.55 C79.82 67.09, 104.68 39.6, 120.26 21.07 M63.1 96.24 C79.25 71.54, 98.1 53.49, 120.78 28.34 M61.33 95.2 C79.91 72.54, 99.44 50.71, 120 26.87 M67.51 95.28 C83.66 71.02, 103.87 46.8, 118.36 30.97 M65.87 93.98 C80.17 76.69, 95.97 59.56, 120.66 33.03 M70.98 94.07 C85.35 74.96, 100.99 60.31, 118.92 37.28 M70.84 93.59 C82.36 81.65, 94.58 68.64, 119.03 39.64 M75.72 95.48 C86.81 83.7, 98.87 71.07, 119.6 44.42 M76.93 94.06 C90.11 78.69, 103.24 64.85, 119.78 43.82 M84.22 95.55 C90.69 85.42, 99.09 73.53, 120.01 52.3 M81.51 93.68 C96.89 79.5, 110.61 63.43, 119.79 50.69 M88.02 94.52 C100.1 82.89, 110.51 70.65, 118.82 57.32 M86.87 94.04 C96.86 83.08, 107.86 72.46, 119.27 58.08 M92.83 93.9 C101.26 82.35, 111.07 74.16, 121.71 63.73 M92.08 93.91 C100.97 84.47, 109.8 75.02, 119.32 63.77 M99.24 95.56 C107.02 83, 115.04 73.49, 119.33 68.92 M97.17 94.28 C103.08 88.6, 108.8 80.7, 120.48 69.71 M103.92 94.75 C105.96 91.68, 110.44 86.26, 121.83 75.25 M103.01 94.26 C107.24 89.77, 110.14 86.17, 120.87 75.71 M108.35 95.08 C111.72 89.95, 112.78 89.35, 121.29 82.9 M109.4 94.19 C112.72 89.08, 116.8 85.75, 119.53 81.47 M114.88 94.1 C116.29 93.18, 116.34 91.12, 119.57 87.52 M113.99 93.75 C116 92.49, 116.82 91.06, 119.84 88.07" stroke="#4c6ef5" stroke-width="0.5" fill="none"></path><path d="M-0.82 0.98 C41.51 -1.23, 85.29 1.24, 118.36 0.87 M0.26 0.86 C38.38 -0.59, 77.82 -0.24, 117.41 -0.6 M116.14 -0.97 C119.08 22.62, 117.71 46.71, 117.01 93.23 M116.23 -0.48 C115.98 29.44, 117.13 56.91, 117.13 92.94 M118.63 92.36 C86.41 90.77, 57.54 93.03, -1.97 90.3 M116.09 92.91 C80.36 91.62, 45.48 91.99, 0.54 91.07 M-1.34 92.71 C0.02 65.92, -0.31 34.39, 1.19 -1.36 M-0.01 92.24 C-0.37 57.92, 0.68 24.58, 0.92 -0.19" stroke="#000000" stroke-width="1" fill="none"></path></g><g stroke-linecap="round" transform="translate(634.22515646087 392) rotate(0 56.5 49)"><path d="M0 0 C0 0, 0 0, 0 0 M0 0 C0 0, 0 0, 0 0 M0.44 6.01 C1.59 4.29, 2.86 3.35, 5.5 1.05 M-0.21 6.68 C0.49 5.28, 2.16 4.1, 4.61 0.19 M0.15 10.87 C2.67 8.16, 4.24 6.79, 9.07 1.13 M0.15 12.76 C2.97 9.16, 4.42 7.16, 10.37 0.08 M-1.16 17.86 C4.39 10.5, 12.5 6.18, 15.52 -0.6 M0.43 18.1 C2.84 15.04, 6.1 10.97, 16.54 -0.2 M0.31 22.12 C8.81 16.88, 15.19 8.63, 20.45 1.81 M-0.43 23.77 C6.98 16.17, 14.51 7.29, 21.9 0.68 M1.47 30.08 C8.16 18.95, 18.03 9.02, 26.88 -0.19 M-0.17 31.07 C7.73 21.25, 16.3 12.3, 26.63 0.17 M-0.95 35 C9.91 24.59, 22.26 9.4, 32.22 1.79 M0.38 36.35 C12.68 23.27, 23.97 8.09, 31.25 -1.05 M-1.34 40.93 C9.55 31.98, 15.42 24, 35.71 -0.64 M-0.74 42.96 C11.46 29.9, 20.18 18.79, 36.31 -0.48 M-2.09 48.87 C15.67 30.57, 34.74 12.82, 42.77 -0.77 M0.45 48.09 C14.39 32.84, 30.36 15.15, 41.54 -0.34 M2.05 53.41 C12.87 40.3, 25.05 24.06, 48.74 1.2 M0.41 54.94 C11.52 40.02, 24.09 26.47, 47.63 1.06 M-0.17 60.75 C12.08 44.19, 28.3 31.25, 51.29 -1.93 M-0.25 61.38 C12.31 47.63, 22.42 33.15, 53.45 0.73 M-0.93 69.33 C20.83 41.59, 42.05 18.37, 58.12 1.57 M-0.11 68.12 C19.62 43.78, 40.92 21.4, 57.7 -0.33 M1.84 72.01 C16.66 53.71, 31.27 36.11, 63.38 -1.67 M-0.06 73.56 C18.31 53.05, 36.12 31.28, 64.22 0.29 M1.49 80.33 C20.49 54.07, 44.98 31.31, 67.4 -0.21 M0.81 79.56 C13.81 64.09, 28.17 48.32, 69.64 0.98 M0.36 83.11 C20.95 62.11, 42.05 39.69, 73.04 -1.86 M0.71 84.68 C30.52 51.47, 59.78 16.66, 74.65 -0.34 M-0.46 90.44 C23.97 65.05, 48.49 33.71, 77.53 0.29 M-0.11 91.77 C23.2 64.47, 45.61 37.76, 79.65 0.28 M0.57 96.34 C32.79 57.35, 63.89 21.36, 84.7 -0.26 M0.17 97.22 C21.38 72.41, 43.17 49.07, 84.07 0.38 M1.13 99.97 C23.15 74.85, 46.99 52.35, 88.88 -1.41 M3.63 99.72 C37.43 61.06, 71.28 21.5, 89.97 -0.41 M9.55 101.04 C35.6 67.69, 64.89 36.48, 95.15 -0.57 M8.95 100.33 C39.32 64.7, 70.33 28.56, 95.37 -0.82 M13.19 100.33 C33.02 75.84, 56.76 48.8, 99.21 -0.69 M12.74 100.54 C40.4 68.82, 67.09 37.67, 99.88 0.61 M18.07 99.99 C47.62 66.67, 75.48 34.36, 107.64 1.63 M19.03 101.2 C38.65 76.54, 59.72 52.62, 105.98 -0.99 M23.96 102.1 C52.86 67.69, 80.97 34.1, 109.72 -1.86 M23.33 100.65 C58.65 60.24, 90.78 23.01, 110.7 -0.23 M27.53 98.79 C58.32 66.79, 88.35 33.06, 115.81 3.09 M29.64 101.45 C48.9 78.66, 68.62 56.11, 114.91 2.27 M33.94 100.93 C59.12 74.35, 81.61 49.08, 116.41 7.44 M34.95 100.65 C62.47 66.48, 91.19 33.96, 116.26 6.72 M40.73 100.11 C59.89 76.58, 77.23 56.97, 115.14 13.98 M39.06 100.38 C65.57 70.64, 89.66 42.08, 115.12 14.86 M46.04 100.53 C63.55 79.42, 80.49 61.28, 115.25 20.84 M45.69 101.31 C65.27 77.55, 84.97 54.24, 114.95 20.04 M48.52 100.97 C76.58 72.36, 102.27 42.07, 116.61 25.16 M50.29 101.26 C70.19 77.45, 90.36 54.13, 116.22 26.51 M55.58 98.72 C75.77 74.27, 97.34 50.37, 114.87 33.28 M55.18 100.63 C71.43 82.99, 88.71 64.04, 115.48 32.2 M59.19 99.49 C76.32 84.05, 87.33 67.36, 117.06 37.42 M61.35 101.04 C73 87.41, 84.07 74.72, 115.83 38.97 M68.27 101.4 C79.54 86.08, 89.88 72.7, 113.43 45.61 M65.6 100.79 C81.99 82.29, 96.45 64.21, 114.71 45.19 M72.41 100.87 C86.38 81.39, 106.08 63.03, 113.09 50.39 M72.32 101.41 C81.02 89.99, 89.28 80.2, 114.45 49.97 M78.25 100.58 C91.58 84.78, 102.08 71.13, 115.13 54.99 M76.68 101.18 C86.81 89.3, 96.6 79.42, 115.22 55.95 M81.26 99.41 C93.61 91.67, 101.67 79.51, 113.67 61.54 M82.33 99.71 C89.59 92.66, 96.04 86.6, 115.1 63.13 M86.06 100.36 C96 88.33, 106.79 76.63, 115.58 69.7 M88.69 99.4 C93.36 94.43, 99.71 86, 115.61 68.1 M94.23 100.51 C99.62 94.4, 106.62 82.87, 114.22 76.69 M92.56 100.03 C98.07 95.36, 103.59 87.88, 114.4 75.59 M96.63 98.93 C103.87 96.53, 109.05 90.74, 115.15 79.86 M97.46 100.25 C105.36 92.53, 110.92 85.26, 114.88 81.74 M105.04 98.83 C108.35 95.41, 110.98 89.63, 117 85.18 M103.25 100.19 C106.2 98.07, 108.73 93.62, 116.06 87.8 M109.19 99.42 C111.32 97.68, 113.97 95.16, 115.25 92.91 M109.2 100.4 C110.47 98.75, 111.59 96.86, 114.56 93.36" stroke="#228be6" stroke-width="0.5" fill="none"></path><path d="M-1.56 0.07 C27.4 -0.81, 59.33 -0.54, 111.85 0.78 M0.55 0.66 C24.31 0.69, 51.32 0.03, 113.16 0.46 M111.23 -1.52 C113.67 35.43, 111.48 74.91, 111.17 97.55 M112.89 -0.09 C114.14 21.05, 112.96 41.06, 113.32 98.76 M114.91 97.99 C85.02 99.36, 58.93 99.5, -1.35 96.52 M112.59 98.06 C79.13 97.8, 45.21 97.44, 0.23 97.22 M0.99 99.6 C2.15 67.46, 2.09 38.35, -1.11 0.5 M0.93 97.98 C0.94 63.22, -0.8 25.81, -0.18 -0.65" stroke="#000000" stroke-width="1" fill="none"></path></g><g stroke-linecap="round" transform="translate(878.22515646087 393) rotate(0 81.5 47.5)"><path d="M0 0 C0 0, 0 0, 0 0 M0 0 C0 0, 0 0, 0 0 M-1.03 6.81 C1.23 4.82, 3.02 2.22, 5.18 0.27 M-0.13 6.6 C1.22 4.7, 2.31 3.29, 5.16 0.57 M1.03 10.44 C3.69 6.79, 6.7 2.27, 11.72 -1.54 M0.55 11.36 C3.23 8.44, 7.04 3.21, 10.21 -0.31 M-0.18 17 C5.05 13.03, 9.87 7.67, 15.31 1.27 M0.63 19.08 C3.74 12.9, 7.92 7.21, 16.32 -0.37 M2.07 23.51 C6.28 17.76, 12.01 9.7, 22.77 -1.97 M-0.46 24.49 C7.49 16.3, 12.21 10.41, 20.95 -0.71 M-0.42 29.82 C8.68 18.23, 19.5 11.3, 24.29 -0.84 M0.84 29.77 C7.17 21.61, 14.2 14.04, 26.48 1.18 M0.61 35.85 C10.27 24.15, 22.34 8.27, 32.72 1.82 M-0.56 36.9 C9.13 28.37, 15.99 17.95, 32.27 -0.45 M-0.81 41.4 C10.1 31.65, 19.69 18.44, 35.59 -0.48 M-0.28 43.34 C8.88 31.36, 18.7 20.11, 36.23 0.93 M-1.76 48.37 C18.22 30.25, 33.4 13.29, 43.49 -2.03 M0.54 48.76 C10.11 36.72, 20.67 25.38, 42.06 -0.43 M1.18 53.37 C13.95 36.95, 32.33 17.75, 45.8 1.14 M-0.21 55.36 C14.02 39.58, 27.96 23.19, 46.95 0.02 M-0.23 61.76 C14.93 43.35, 31.84 26.43, 55.1 -0.93 M0.13 60.39 C17.15 41.44, 35.09 19.91, 52.83 0.67 M-2.22 68.22 C20.7 44.82, 43.13 19.22, 58.9 1.91 M-0.5 66.39 C19.13 42.86, 40.01 18.5, 58.06 0.27 M2.06 71.03 C22.41 49.17, 43.76 23.21, 64 -0.2 M0.19 72.04 C13.38 57.9, 25.42 42.66, 64.66 -0.58 M-0.37 80.23 C16.38 62.35, 30.38 47.39, 68.29 0.84 M0.78 79.89 C16.33 61.51, 30.54 43.05, 68.03 -0.81 M-0.63 84.3 C25.03 56.89, 49.58 26.16, 73.04 -1.04 M-0.25 85.67 C30.76 49.93, 59.64 16.64, 74.16 0.56 M1.8 90.09 C31.84 57.81, 61.53 20.23, 78.76 -0.02 M0.17 91.81 C18.13 72.5, 35.15 52.05, 79.37 1.02 M2.05 96.02 C29.43 66.61, 55.56 35.24, 85.47 1.43 M0.56 97.2 C19.61 76.23, 36.81 55.26, 85.51 0.05 M6.97 96.25 C26.78 71.14, 48.94 48.41, 88.54 -1.46 M6.95 95 C29.17 71.17, 49.02 47.1, 89.66 -0.31 M10.35 95.93 C35.84 69.16, 59.84 39.53, 94.96 0.17 M11.93 96.44 C30.6 75.08, 50.63 53.78, 95.41 0.05 M19.06 95.82 C37.64 74.63, 54.51 57.19, 99.22 -1.24 M17.77 95.06 C49.27 58.95, 80.22 22.8, 100.5 -0.16 M20.93 94.74 C46.41 68.72, 72.45 37.92, 107.56 -1.76 M22.17 95.77 C53.56 58.56, 87.01 22.42, 106.12 -0.09 M29.07 97.52 C56.38 63.78, 84.92 30.33, 109.83 0.02 M27.52 96.34 C50.43 71.1, 71.95 45.31, 110.56 -0.2 M33.68 96.93 C63.06 61.35, 90.81 30.6, 115.11 -0.42 M32.53 95.97 C57.22 66.8, 83.49 37.48, 115.8 -0.04 M38.35 97.63 C70.29 60.4, 102.99 24.99, 122.8 0.76 M39.56 96.82 C64.58 65.05, 91.03 36.45, 122.53 0.61 M43.9 98.1 C70.41 65.22, 98.53 34.13, 127.78 -0.09 M44.26 96.53 C72.61 60.02, 103.64 23.84, 126.11 -0.54 M48.66 94.54 C70.59 67.7, 95.55 41.08, 133.96 0.55 M48.82 95.72 C74.64 64.42, 101.45 35.25, 132.16 -0.98 M52.3 94.9 C72.48 74.4, 93.95 51.81, 136.21 1.35 M53.68 96.61 C73.97 72.77, 95.08 49.12, 137.29 0.14 M60.15 94.72 C85.51 65.12, 110.8 38.55, 142.55 -1.98 M60.75 96.44 C78.3 74.74, 96.52 52.66, 143.27 0.48 M63 95.12 C96.94 63.23, 127.46 27.55, 148.08 -0.68 M65.15 96.11 C95.11 63.68, 123.95 30.38, 147.79 0.15 M69.4 94.73 C95.13 66.31, 122.89 38.46, 153.21 0.92 M70.37 95.6 C99.5 61.53, 129.3 28.79, 154.68 0.14 M73.5 95.62 C101.07 65.94, 128.29 36.04, 157.51 1.38 M76.07 96.61 C108.07 57.67, 140.29 20.45, 158.61 -0.11 M78.71 95.99 C101.16 72.11, 123.27 44.02, 165.34 0.82 M80.58 96.76 C97.04 77.52, 114.92 56.82, 164.65 0.6 M84.75 96.35 C102.78 76.21, 117.95 58.25, 165.08 7.93 M85.91 96.41 C104.5 74.45, 121.16 55.65, 164.38 7.73 M92.79 95.74 C117.33 64.72, 143.74 37.54, 163.22 12.22 M91.79 96.44 C110.99 74.89, 128.53 52.22, 163.92 11.99 M95.07 94.36 C115.18 76.41, 129.77 57.17, 165.03 19.19 M97.16 95.5 C108.94 80, 122.18 64.6, 163.5 19.94 M100.76 97.58 C117.51 78.36, 135.54 58.75, 165.53 22.83 M100.99 95.6 C123.66 73.14, 143.44 47.8, 164.31 25.25 M106.2 97.8 C129.17 73.97, 148.85 51.21, 163.25 29.69 M106.38 96.58 C119.08 81.14, 132.06 66.41, 163.2 30.22 M112.81 94.46 C125.96 82.35, 140.84 67.71, 161.91 37.5 M111.38 95.68 C125.17 81.11, 138.36 67.33, 164.22 37.09 M117.29 95.91 C132.81 75.3, 153.39 57.73, 163.48 43.35 M117.15 96.05 C129.74 81.61, 142.37 66.55, 164.65 43.77 M121.54 95.4 C134.45 81.98, 148.7 64.67, 163.33 49.93 M122.71 96.29 C137.83 80.06, 151.7 63.17, 164.02 48.67 M126.88 97.01 C143.98 79.15, 153.82 65.65, 165.84 54.16 M129.12 95 C139.2 83.14, 148.51 72.18, 164.6 54.97 M131.95 95.55 C143.47 86.22, 150.03 77.24, 164.23 61.18 M134.26 96.28 C141.69 87.05, 149.06 79.83, 163.19 61.13 M138.94 94.53 C145.85 87.32, 150.26 80.18, 164.22 68.98 M138.99 96.26 C146.66 87.9, 154.93 78.12, 163.65 67.18 M143.46 98.11 C151.59 86, 159.66 78.33, 163.09 74.64 M143.88 96.67 C151.93 86.64, 160.03 79.07, 163.9 73.52 M148.83 96.99 C154.29 90.03, 159.56 84.92, 162.85 78.49 M149.48 95.33 C153.67 90.84, 158.3 86.31, 163.94 80.68 M155.58 96.35 C159.1 93.24, 163 88.09, 163.89 86.45 M154.93 95.85 C158.31 93.36, 160.05 90.18, 163.58 86.33 M160.72 95.36 C161.96 94.01, 163.21 93.04, 163.46 91.96 M160.48 95.71 C161.81 94.39, 162.71 93.17, 163.89 92.09" stroke="#15aabf" stroke-width="0.5" fill="none"></path><path d="M-0.02 0.47 C57.67 0.39, 119.43 1.05, 164.84 -0.37 M-0.06 -0.5 C58 1.77, 116.93 2.1, 162.15 0.8 M164.29 -0.05 C162.89 20.93, 162.43 39.96, 164.84 93.34 M163.25 0.23 C163.35 21.29, 162.59 41.45, 162.59 95.19 M164.75 94.62 C103.71 92.66, 46.98 94.11, 0.15 95.15 M162.62 95.79 C118.96 97.09, 75.34 96.87, -0.68 95.52 M-1.71 94.26 C-2.4 65.6, 0.81 33.73, 0.66 0.74 M-0.86 95.68 C0.21 60.73, 0.17 26.67, -0.86 -0.18" stroke="#000000" stroke-width="1" fill="none"></path></g><g transform="translate(78.72515646086998 440) rotate(0 29 13)"><text x="29" y="21" font-family="Chinese, Segoe UI Emoji" font-size="20px" fill="#000000" text-anchor="middle" style="white-space: pre;" direction="ltr">Slave1</text></g><g transform="translate(358.72515646087 439) rotate(0 33 13)"><text x="33" y="21" font-family="Chinese, Segoe UI Emoji" font-size="20px" fill="#000000" text-anchor="middle" style="white-space: pre;" direction="ltr">Slave2</text></g><g transform="translate(657.72515646087 428) rotate(0 33 13)"><text x="33" y="21" font-family="Chinese, Segoe UI Emoji" font-size="20px" fill="#000000" text-anchor="middle" style="white-space: pre;" direction="ltr">Slave3</text></g><g transform="translate(927.22515646087 427.5) rotate(0 32.5 13)"><text x="32.5" y="21" font-family="Chinese, Segoe UI Emoji" font-size="20px" fill="#000000" text-anchor="middle" style="white-space: pre;" direction="ltr">Slave4</text></g><g stroke-linecap="round"><g transform="translate(99.22515646086998 237) rotate(0 0.3979651477187929 84.78684309149162)"><path d="M-0.79 -0.63 C-0.68 27.54, 1.06 140.56, 1.59 168.78 M0.99 1.65 C0.84 30.03, 0.29 142.17, 0.43 170.2" stroke="#000000" stroke-width="1" fill="none"></path></g></g><g stroke-linecap="round"><g transform="translate(394.22515646087 239) rotate(0 -1.9980918154585652 82.16570924388245)"><path d="M-0.7 -0.41 C-1.71 26.96, -4.72 137.4, -5.13 165 M1.13 -1.68 C0.4 25.74, -2.24 138.06, -3 166.01" stroke="#000000" stroke-width="1" fill="none"></path></g></g><g stroke-linecap="round"><g transform="translate(703.22515646087 244) rotate(0 -1.6401380355097217 73.69800164144488)"><path d="M-0.85 -0.03 C-1.4 24.29, -3.73 122.42, -4.18 146.97 M0.9 -1.1 C0.78 23.95, -1.17 123.52, -2.09 148.49" stroke="#000000" stroke-width="1" fill="none"></path></g></g><g stroke-linecap="round"><g transform="translate(936.22515646087 242) rotate(0 2.050599572164856 77.04433285312729)"><path d="M-0.59 0.63 C-0.11 25.92, 1.76 127.41, 2.33 152.76 M1.3 -0.09 C2.22 25.91, 4.57 128.5, 4.69 154.17" stroke="#000000" stroke-width="1" fill="none"></path></g></g></svg>